<svg viewBox="0 0 24 24" width="24px" xmlns="http://www.w3.org/2000/svg" version="1.1" height="24px">
 <g transform="translate(3 4)">
  <path d="m18 15v-2h-13v2h13zm0-6v-2h-13v2h13zm-13-6h13v-2h-13v2zm-4-1.9906v1.9812c0 0.0095-0.00009 0.0094 0.0094 0.0094h1.9812c0.0095 0 0.0094 0.0001 0.0094-0.0094v-1.9812c0-0.00949 0.0001-0.0094-0.0094-0.0094h-1.9812c-0.00949 0-0.0094-0.00009-0.0094 0.0094zm-1 0c0-0.55749 0.44335-1.0094 1.0094-1.0094h1.9812c0.5575 0 1.0094 0.44335 1.0094 1.0094v1.9812c0 0.5575-0.4434 1.0094-1.0094 1.0094h-1.9812c-0.55749 0-1.0094-0.4434-1.0094-1.0094v-1.9812zm1 6v1.9812c0 0.0095-0.00009 0.0094 0.0094 0.0094h1.9812c0.0095 0 0.0094 0.0001 0.0094-0.0094v-1.9812c0-0.0095 0.0001-0.0094-0.0094-0.0094h-1.9812c-0.00949 0-0.0094-0.0001-0.0094 0.0094zm-1 0c0-0.5575 0.44335-1.0094 1.0094-1.0094h1.9812c0.5575 0 1.0094 0.4434 1.0094 1.0094v1.9812c0 0.5575-0.4434 1.0094-1.0094 1.0094h-1.9812c-0.55749 0-1.0094-0.4434-1.0094-1.0094v-1.9812zm1 5.9996v1.982c0 0.009-0.00009 0.009 0.0094 0.009h1.9812c0.0095 0 0.0094 0 0.0094-0.009v-1.982c0-0.009 0.0001-0.009-0.0094-0.009h-1.9812c-0.00949 0-0.0094 0-0.0094 0.009zm-1 0c0-0.557 0.44335-1.009 1.0094-1.009h1.9812c0.5575 0 1.0094 0.443 1.0094 1.009v1.982c0 0.557-0.4434 1.009-1.0094 1.009h-1.9812c-0.55749 0-1.0094-0.443-1.0094-1.009v-1.982z"/>
 </g>
</svg>
